<svg version="1" xmlns="http://www.w3.org/2000/svg" width="933.333" height="933.333" viewBox="0 0 700.000000 700.000000"><path d="M160.8 203.2l101.6 203.3.1 146.5v146.5l22 .3 22 .2-.1-151.8-.1-151.8-99-197.9-99-198L83.7.2 59.1 0l101.7 203.2zM191 .5c0 1.4 158.6 317.5 159.1 317.3C350.8 317.5 509 1.6 509 .6c0-.4-10.9-.6-24.2-.6h-24.3l-42.6 85.3c-23.4 46.8-48.3 96.6-55.3 110.5L350 221.1l-55.3-110.6L239.5 0h-24.2c-13.4 0-24.3.2-24.3.5zM590.4 3.2c-1 1.8-45.6 91-99.2 198.2l-97.5 194.9.1 151.1c0 83.1.1 151.4.1 151.8.1.5 9.9.8 21.9.8h21.7V406.7l101.2-202.5C594.4 92.8 640 1.3 640 .8c0-.4-10.8-.8-24-.8h-23.9l-1.7 3.2z"/></svg>